<?xml version="1.0" encoding="UTF-8"?>
<svg id="Layer_1" data-name="Layer 1" xmlns="http://www.w3.org/2000/svg" viewBox="0 0 161.67 53.97">
  <defs>
    <style>
      .cls-1 {
        fill: #fff;
      }

      .cls-2 {
        fill: none;
        stroke: #000;
        stroke-linecap: round;
        stroke-linejoin: round;
        stroke-width: 2px;
      }

      .cls-3 {
        fill: #cbb1d9;
      }
    </style>
  </defs>
  <path d="M18.7,53.64c-8.44,0-14.58-3.19-18.2-10.79-1.39-3.13.24-6.51,3.31-8.02,3.25-1.51,6.33,0,7.71,2.71,1.51,3.01,4.1,4.58,7.53,4.58,2.35,0,4.94-.96,4.94-3.31,0-1.33-.84-2.47-2.65-3.43-1.63-.9-3.86-1.63-5.79-2.23C1.34,28.2.44,23.02.44,17.12.44,7.65,9,1.69,18.52,1.69c7.29,0,13.38,2.95,16.75,9.46,1.63,3.13,0,7.05-3.25,8.68-2.47,1.33-5.91.18-7.83-3.07-1.39-2.29-3.37-3.5-5.85-3.5-2.11,0-4.22,1.09-4.22,3.19,0,1.99,2.05,3.62,6.33,5.12,9.1,3.01,17.12,5.66,17.12,15.85s-8.26,16.21-18.86,16.21Z"/>
  <path d="M42.89,6.75c0-3.98,3.13-6.75,7.11-6.75s7.11,2.77,7.11,6.75-3.07,6.69-7.11,6.69-7.11-2.65-7.11-6.69ZM43.5,47.13v-23.44c0-3.62,2.89-6.51,6.51-6.51s6.51,2.89,6.51,6.51v23.44c0,3.62-2.89,6.51-6.51,6.51s-6.51-2.89-6.51-6.51Z"/>
  <path class="cls-3" d="M66.18,27.99c0-15.37,11.03-25.97,25.85-25.97s25.79,11.09,25.79,25.97c0,15.67-11.09,25.97-25.79,25.97s-25.85-10.43-25.85-25.97Z"/>
  <path class="cls-3" d="M132.08,53.97c-3.62,0-6.51-2.89-6.51-6.51v-24.17c0-3.19,2.59-5.79,5.79-5.79,2.47,0,4.58,1.63,5.36,3.5.06.12.24.18.42.06,2.71-2.53,5.79-4.22,10.85-4.22,8.02,0,13.68,4.4,13.68,13.5v17.12c0,3.62-2.89,6.51-6.51,6.51s-6.51-2.89-6.51-6.51v-12.6c0-4.64-1.33-6.51-4.58-6.51-2.65,0-4.4,1.51-5.36,4.52-.06.24-.12-.69-.12-.45v15.04c0,3.62-2.89,6.51-6.51,6.51Z"/>
  <circle cx="81.39" cy="20.76" r="4.22"/>
  <circle cx="102.62" cy="20.76" r="4.22"/>
  <circle class="cls-1" cx="82.75" cy="19.4" r="1.36"/>
  <circle class="cls-1" cx="80.03" cy="22.12" r="1.36"/>
  <circle class="cls-1" cx="103.92" cy="19.65" r="1.62"/>
  <circle class="cls-1" cx="101.26" cy="22.12" r="1.36"/>
  <path class="cls-2" d="M88.02,28.65s3.85,4.08,8.32,0"/>
</svg>