<?xml version="1.0" encoding="utf-8"?>
<!-- Generator: Adobe Illustrator 24.0.2, SVG Export Plug-In . SVG Version: 6.00 Build 0)  -->
<svg version="1.1" id="Layer_1" xmlns="http://www.w3.org/2000/svg" xmlns:xlink="http://www.w3.org/1999/xlink" x="0px" y="0px"
	 viewBox="0 0 210 70" style="enable-background:new 0 0 210 70;" xml:space="preserve">
<style type="text/css">
	.st0{fill:#F8F2F9;stroke:#CBB1D9;stroke-miterlimit:10;}
</style>
<polygon class="st0" points="191.6,52.5 196.4,49.8 191.6,47 196.4,44.2 191.6,41.4 196.4,38.6 191.6,35.8 196.4,33 191.6,30.3 
	196.4,27.5 191.6,24.7 196.4,21.9 191.6,19.1 196.4,16.3 191.6,13.5 196.9,10.5 196.9,10 13.1,10 13.1,10.3 18.5,13.2 13.6,16.2 
	18.4,18.8 13.9,21.5 18.5,24 13.8,26.9 18.4,29.3 13.8,32.1 18.4,34.5 13.8,37.3 18.4,39.7 13.8,42.5 18.4,45 13.8,47.7 18.4,50.2 
	13.8,52.9 18.4,55.4 17.7,55.8 196.9,55.8 196.9,55.6 "/>
</svg>
