<svg id="Layer_1" data-name="Layer 1" xmlns="http://www.w3.org/2000/svg" viewBox="0 0 60.75 60.75"><defs><style>.cls-1{fill:#cbb1d9;}.cls-1,.cls-2{stroke:#000;stroke-miterlimit:10;stroke-width:0.75px;}.cls-3{fill:#fff;}</style></defs><title>dongle</title><path class="cls-1" d="M5.66,35.06C5.66,17.39,18.41,5.2,35.55,5.2,53.39,5.2,65.37,18,65.37,35.06c0,18-12.82,29.85-29.82,29.85C18.76,64.91,5.66,52.93,5.66,35.06Z" transform="translate(-5.14 -4.68)"/><path class="cls-2" d="M35.55,65.06c-17.4,0-30-12.62-30-30,0-8.52,3-16.21,8.56-21.66A30.23,30.23,0,0,1,35.55,5.06c8.71,0,16.21,3,21.71,8.55a30.31,30.31,0,0,1,8.26,21.45c0,8.76-3,16.29-8.58,21.78C51.52,62.14,43.93,65.06,35.55,65.06Zm0-59.72c-17.23,0-29.74,12.5-29.74,29.72S18.32,64.77,35.55,64.77c17.48,0,29.68-12.22,29.68-29.71S53,5.34,35.55,5.34Z" transform="translate(-5.14 -4.68)"/><ellipse cx="18.1" cy="20.7" rx="4.88" ry="4.85"/><ellipse cx="42.65" cy="20.7" rx="4.88" ry="4.85"/><ellipse class="cls-3" cx="19.68" cy="19.13" rx="1.57" ry="1.56"/><ellipse class="cls-3" cx="16.53" cy="22.26" rx="1.57" ry="1.56"/><ellipse class="cls-3" cx="44.15" cy="19.42" rx="1.87" ry="1.86"/><ellipse class="cls-3" cx="41.07" cy="22.26" rx="1.57" ry="1.56"/><path d="M35.72,37.69a8.1,8.1,0,0,1-5.65-2.46,1.13,1.13,0,0,1,.05-1.62,1.15,1.15,0,0,1,1.63,0c.39.4,3.84,3.73,8,0a1.15,1.15,0,0,1,1.63.07,1.14,1.14,0,0,1-.07,1.62A8.26,8.26,0,0,1,35.72,37.69Z" transform="translate(-5.14 -4.68)"/></svg>