<?xml version="1.0" encoding="utf-8"?>
<!-- Generator: Adobe Illustrator 24.0.2, SVG Export Plug-In . SVG Version: 6.00 Build 0)  -->
<svg version="1.1" id="Layer_1" xmlns="http://www.w3.org/2000/svg" xmlns:xlink="http://www.w3.org/1999/xlink" x="0px" y="0px"
	 viewBox="0 0 165 55" style="enable-background:new 0 0 165 55;" xml:space="preserve">
<style type="text/css">
	.st0{fill:#CBB1D9;}
	.st1{fill:#FFFFFF;}
	.st2{fill:none;stroke:#000000;stroke-width:2;stroke-linecap:round;stroke-linejoin:round;stroke-miterlimit:10;}
</style>
<g>
	<path d="M20.6,54.4c-8.4,0-14.6-3.2-18.2-10.8c-1.4-3.1,0.2-6.5,3.3-8c3.3-1.5,6.3,0,7.7,2.7c1.5,3,4.1,4.6,7.5,4.6
		c2.4,0,4.9-1,4.9-3.3c0-1.3-0.8-2.5-2.7-3.4c-1.6-0.9-3.9-1.6-5.8-2.2C3.3,29,2.4,23.8,2.4,17.9c0-9.5,8.6-15.4,18.1-15.4
		c7.3,0,13.4,3,16.8,9.5c1.6,3.1,0,7.1-3.3,8.7c-2.5,1.3-5.9,0.2-7.8-3.1c-1.4-2.3-3.4-3.5-5.8-3.5c-2.1,0-4.2,1.1-4.2,3.2
		c0,2,2,3.6,6.3,5.1c9.1,3,17.1,5.7,17.1,15.8C39.5,48.8,31.2,54.4,20.6,54.4z"/>
	<path d="M44.8,7.5c0-4,3.1-6.7,7.1-6.7S59,3.5,59,7.5c0,4-3.1,6.7-7.1,6.7S44.8,11.5,44.8,7.5z M45.4,47.9V24.4
		c0-3.6,2.9-6.5,6.5-6.5s6.5,2.9,6.5,6.5v23.4c0,3.6-2.9,6.5-6.5,6.5S45.4,51.5,45.4,47.9z"/>
	<path class="st0" d="M68.1,28.8c0-15.4,11-26,25.9-26c15.4,0,25.8,11.1,25.8,26c0,15.7-11.1,26-25.8,26
		C79.4,54.7,68.1,44.3,68.1,28.8z"/>
	<path class="st0" d="M134,54.7c-3.6,0-6.5-2.9-6.5-6.5V24.1c0-3.2,2.6-5.8,5.8-5.8c2.5,0,4.6,1.6,5.4,3.5c0.1,0.1,0.2,0.2,0.4,0.1
		c2.7-2.5,5.8-4.2,10.8-4.2c8,0,13.7,4.4,13.7,13.5v17.1c0,3.6-2.9,6.5-6.5,6.5c-3.6,0-6.5-2.9-6.5-6.5V35.6c0-4.6-1.3-6.5-4.6-6.5
		c-2.7,0-4.4,1.5-5.4,4.5c-0.1,0.2-0.1-0.7-0.1-0.5v15C140.5,51.8,137.6,54.7,134,54.7z"/>
	<circle cx="83.3" cy="21.5" r="4.2"/>
	<circle cx="104.5" cy="21.5" r="4.2"/>
	<circle class="st1" cx="84.7" cy="20.2" r="1.4"/>
	<circle class="st1" cx="82" cy="22.9" r="1.4"/>
	<circle class="st1" cx="105.8" cy="20.4" r="1.6"/>
	<circle class="st1" cx="84.7" cy="20.2" r="1.6"/>
	<circle class="st1" cx="103.2" cy="22.9" r="1.4"/>
	<path class="st2" d="M89.9,29.4c0,0,3.9,4.1,8.3,0"/>
</g>
</svg>
